<svg width="1722" height="457" viewBox="0 0 1722 457" fill="none" xmlns="http://www.w3.org/2000/svg">
<path d="M183.268 119.979C173.342 119.979 163.417 119.979 153.491 119.979C151.532 119.979 149.834 120.109 149.399 117.279C146.482 98.3423 134.031 88.852 116.444 85.0645C106.649 82.9749 96.8102 83.4103 87.1021 86.4141C61.8526 94.1195 58.1958 128.424 74.6951 141.397C81.051 146.403 87.7116 150.583 95.1994 153.586C115.573 161.727 136.992 166.603 157.496 174.309C175.301 180.969 191.801 189.284 204.382 204.26C214.569 216.406 219.27 230.38 220.359 245.834C223.493 291.109 196.763 326.11 155.45 338.343C115.791 350.054 76.8282 347.355 40.6953 325.806C15.5764 310.786 2.21155 287.844 0.0348697 258.503C-0.226332 254.846 0.949089 253.757 4.60592 253.801C23.5866 253.975 42.5672 253.932 61.5479 253.801C64.5952 253.801 65.5095 254.541 66.0319 257.719C69.6452 280.574 85.7091 294.07 109 294.331C121.581 294.461 133.683 292.894 144.044 284.884C161.545 271.301 161.762 245.617 144.784 231.425C135.294 223.502 123.975 219.714 112.526 216.101C91.3249 209.484 69.7322 203.955 49.3585 194.813C27.6352 185.105 10.3523 170.521 4.25764 146.665C-8.01885 98.647 13.0514 54.7216 64.2034 39.5283C99.5092 29.0803 134.815 29.6897 168.467 45.9278C197.765 60.0327 213.48 84.1939 216.963 116.496C217.311 119.63 216.179 119.979 213.611 119.979C203.468 119.935 193.368 119.979 183.268 119.979Z" fill="#0DA6F5"/>
<path d="M741.716 265.21C750.597 265.21 759.478 265.21 768.358 265.21C770.23 265.21 771.754 264.993 772.625 267.648C779.068 286.672 791.91 296.38 812.066 297.382C821.513 297.86 830.873 296.903 839.449 292.375C849.766 286.934 854.512 277.095 851.638 267.387C849.723 260.987 845.108 257.287 839.362 254.719C823.428 247.536 806.494 243.53 789.69 239.134C778.589 236.217 767.488 233.126 757.04 228.381C735.665 218.629 719.644 204.089 716.771 179.188C713.201 148.497 727.001 123.073 754.732 108.794C778.85 96.3868 804.578 94.4277 830.96 97.5186C848.722 99.6083 865.047 105.485 879.239 116.804C897.305 131.257 906.099 150.456 908.711 173.006C909.016 175.531 908.232 176.358 905.664 176.315C888.25 176.227 870.837 176.227 853.423 176.315C850.855 176.315 850.289 175.139 849.766 173.049C845.369 156.202 835.052 147.191 817.551 145.275C809.019 144.361 800.486 144.622 792.215 147.234C782.246 150.412 776.107 157.334 775.672 166.476C775.193 176.445 780.591 182.714 789.167 186.806C804.97 194.337 822.079 197.733 838.796 202.478C852.509 206.396 866.222 210.271 878.716 217.41C923.817 243.313 918.898 302.649 882.373 327.289C865.264 338.826 846.197 344.006 825.953 345.182C798.963 346.792 773.191 342.57 749.944 327.899C728.438 314.316 714.42 295.553 710.851 269.738C710.285 265.689 711.547 265.036 715.073 265.123C723.954 265.341 732.835 265.21 741.716 265.21Z" fill="#0DA6F5"/>
<path d="M685.51 180.579C685.51 232.297 685.423 284.015 685.641 335.733C685.641 340.653 684.161 341.654 679.59 341.61C662.699 341.349 645.807 341.436 628.916 341.567C625.564 341.61 624.52 340.696 624.52 337.257C624.607 232.776 624.607 128.339 624.52 23.8582C624.52 20.1578 625.608 19.1565 629.221 19.2001C646.286 19.3742 663.352 19.4177 680.417 19.2001C684.552 19.1565 685.597 20.3755 685.597 24.4241C685.467 76.4468 685.51 128.513 685.51 180.579Z" fill="#0DA6F5"/>
<path d="M525.311 220.801C525.311 182.317 525.398 143.877 525.181 105.393C525.137 100.953 526.443 99.9517 530.666 100.039C547.731 100.3 564.796 100.213 581.862 100.082C585.17 100.039 586.302 100.866 586.302 104.349C586.215 181.969 586.215 259.633 586.302 337.254C586.302 340.78 585.17 341.563 581.862 341.52C564.448 341.389 547.035 341.346 529.621 341.563C525.66 341.607 525.181 340.083 525.224 336.731C525.355 298.117 525.311 259.459 525.311 220.801Z" fill="#0DA6F5"/>
<path d="M593.567 35.8283C593.567 56.5503 577.895 71.7 556.433 71.7435C534.623 71.8306 518.602 56.6374 518.559 35.9153C518.515 15.1933 534.536 -0.0434406 556.346 9.30489e-05C577.852 0.0436267 593.524 15.1498 593.567 35.8283Z" fill="#0DA6F5"/>
<path d="M1187.2 190.504C1182.41 163.078 1170.13 139.57 1148.93 121.112C1109.23 86.5459 1040.01 86.1105 1002.96 130.863C1002.27 131.69 1001.92 133.17 1000.05 132.692C1000.05 123.506 999.873 114.32 1000.13 105.091C1000.22 101.391 999.525 99.9978 995.389 100.041C978.15 100.303 960.911 100.259 943.671 100.085C940.014 100.041 939.057 101.086 939.057 104.699C939.144 220.499 939.144 336.255 939.057 452.054C939.057 455.929 940.406 456.538 943.845 456.538C960.562 456.364 977.279 456.234 993.996 456.582C999.09 456.712 1000.22 455.319 1000.22 450.313C1000 403.297 1000.09 356.28 1000.09 308.829C1002.49 309.656 1003.14 311.397 1004.27 312.66C1015.37 324.806 1028.47 334.252 1044.06 339.607C1092.64 356.324 1149.89 338.997 1176.53 283.318C1190.59 253.672 1192.73 222.414 1187.2 190.504ZM1101.05 278.703C1066.65 305.39 1017.33 289.369 1004.1 247.185C997.261 225.462 998.045 203.826 1008.97 183.408C1021.68 159.639 1046.76 146.84 1071.92 150.54C1098.83 154.458 1119.33 173.657 1125.21 200.343C1126.69 207.003 1127.51 213.708 1127.34 220.542C1127.08 243.746 1119.9 264.076 1101.05 278.703Z" fill="#0DA6F5"/>
<path d="M1722 24.1202C1722 20.2457 1721.04 19.1138 1717.08 19.1574C1700.19 19.375 1683.29 19.5057 1666.4 19.1139C1660.92 18.9833 1659.96 20.6811 1660 25.7745C1660.22 61.0803 1660.14 96.4296 1660.14 133.085C1658.39 131.169 1657.48 130.168 1656.57 129.167C1655.52 127.992 1654.56 126.773 1653.43 125.684C1630.84 103.917 1603.76 94.2964 1572.59 96.7343C1534.71 99.6946 1506.33 118.066 1487.48 150.977C1475.42 172.004 1470.85 194.946 1470.72 219.02C1470.59 245.663 1475.86 270.782 1489.7 293.811C1523.31 349.708 1591.09 357.066 1633.01 332.077C1643.55 325.808 1652.3 317.581 1660.09 306.392C1660.09 317.537 1660.27 327.245 1660 336.909C1659.92 340.436 1660.7 341.655 1664.53 341.611C1682.12 341.393 1699.71 341.437 1717.29 341.611C1720.86 341.655 1722 340.827 1722 337.04C1721.91 232.733 1721.91 128.427 1722 24.1202ZM1636.5 277.443C1600.58 307.002 1547.47 288.631 1536.02 242.572C1530.58 220.631 1531.67 198.995 1544.12 179.187C1557.7 157.594 1582.38 146.493 1606.28 150.847C1633.01 155.722 1652.43 174.05 1658.05 199.604C1659.57 206.613 1660.53 213.622 1660.31 218.411C1660.4 243.094 1654.17 262.859 1636.5 277.443Z" fill="#0DA6F5"/>
<path d="M487.042 104.441C487.042 101.089 486.171 100 482.732 100.044C465.145 100.218 447.557 100.262 430.013 100C425.834 99.9569 425.181 101.437 425.268 105.094C425.486 114.236 425.355 123.334 425.355 132.477C424.615 132.433 424.397 132.52 424.31 132.433C423.831 131.911 423.396 131.388 422.917 130.866C402.848 107.575 377.207 95.9518 346.69 96.1695C303.417 96.5178 270.985 115.847 250.742 154.243C233.938 186.154 232.109 220.24 239.423 254.806C250.437 306.959 291.794 347.315 349.476 345.4C379.035 344.442 403.719 333.167 422.83 310.268C423.439 309.571 423.701 308.265 425.398 308.701C425.398 318.017 425.573 327.42 425.311 336.78C425.224 340.35 426.095 341.569 429.882 341.525C447.47 341.307 465.058 341.351 482.602 341.482C485.823 341.525 487.086 340.916 487.086 337.259C486.955 259.725 486.955 182.061 487.042 104.441ZM401.542 277.444C365.627 307.003 312.516 288.632 301.066 242.573C295.625 220.632 296.713 198.996 309.164 179.188C322.746 157.595 347.43 146.494 371.33 150.848C398.059 155.724 417.475 174.051 423.091 199.605C424.615 206.614 425.573 213.623 425.355 218.281C425.442 243.096 419.217 262.86 401.542 277.444Z" fill="#0DA6F5"/>
<path d="M1448.23 198.381C1448.23 167.211 1448.14 136.084 1448.31 104.914C1448.36 100.953 1447.22 99.9949 1443.35 100.082C1425.76 100.3 1408.17 100.256 1390.63 100.125C1387.45 100.082 1386.41 100.953 1386.49 104.218C1386.71 113.621 1386.58 122.981 1386.58 133.733C1385.32 132.297 1384.88 131.818 1384.45 131.339C1364.51 107.918 1338.91 96.1639 1308.4 96.2945C1264.91 96.5122 1232.3 115.798 1211.97 154.456C1195.21 186.366 1193.38 220.452 1200.69 255.018C1211.1 304.385 1248.54 341.868 1298.3 345.263C1332.3 347.571 1361.33 337.253 1383.8 310.785C1384.49 309.958 1384.75 308.434 1386.63 308.826C1386.63 318.186 1386.8 327.589 1386.54 336.949C1386.45 340.605 1387.54 341.65 1391.2 341.607C1408.44 341.432 1425.68 341.389 1442.87 341.607C1447.14 341.65 1448.4 340.692 1448.36 336.252C1448.14 290.28 1448.23 244.309 1448.23 198.381ZM1374.35 264.639C1360.42 284.839 1340.39 293.72 1316.19 291.151C1292.59 288.67 1276.49 274.957 1266.34 253.93C1261.21 243.221 1259.42 231.771 1259.55 221.41C1259.38 197.162 1266.6 177.354 1284.84 163.032C1320.67 134.952 1374.13 154.325 1384.14 199.034C1389.28 221.933 1388.19 244.57 1374.35 264.639Z" fill="#0DA6F5"/>
</svg>
